solid OpenSCAD_Model
  facet normal 0.970942 0.239316 0
    outer loop
      vertex 4 0 10
      vertex 3.54182 1.85889 2
      vertex 3.54182 1.85889 10
    endloop
  endfacet
  facet normal 0.970942 0.239316 0
    outer loop
      vertex 3.54182 1.85889 2
      vertex 4 0 10
      vertex 4 0 2
    endloop
  endfacet
  facet normal -1 0 0
    outer loop
      vertex -3.88377 -0.957262 2
      vertex -3.88377 0.957262 10
      vertex -3.88377 0.957262 2
    endloop
  endfacet
  facet normal -1 -0 0
    outer loop
      vertex -3.88377 0.957262 10
      vertex -3.88377 -0.957262 2
      vertex -3.88377 -0.957262 10
    endloop
  endfacet
  facet normal -0.120537 0.992709 0
    outer loop
      vertex 0.482146 3.97083 2
      vertex -1.41842 3.74006 10
      vertex 0.482146 3.97083 10
    endloop
  endfacet
  facet normal -0.120537 0.992709 0
    outer loop
      vertex -1.41842 3.74006 10
      vertex 0.482146 3.97083 2
      vertex -1.41842 3.74006 2
    endloop
  endfacet
  facet normal 0.748511 0.663123 0
    outer loop
      vertex 3.54182 1.85889 10
      vertex 2.27226 3.29193 2
      vertex 2.27226 3.29193 10
    endloop
  endfacet
  facet normal 0.748511 0.663123 0
    outer loop
      vertex 2.27226 3.29193 2
      vertex 3.54182 1.85889 10
      vertex 3.54182 1.85889 2
    endloop
  endfacet
  facet normal -0.568065 0.822984 0
    outer loop
      vertex -1.41842 3.74006 2
      vertex -2.99404 2.65249 10
      vertex -1.41842 3.74006 10
    endloop
  endfacet
  facet normal -0.568065 0.822984 0
    outer loop
      vertex -2.99404 2.65249 10
      vertex -1.41842 3.74006 2
      vertex -2.99404 2.65249 2
    endloop
  endfacet
  facet normal 0.970942 -0.239316 0
    outer loop
      vertex 3.54182 -1.85889 10
      vertex 4 0 2
      vertex 4 0 10
    endloop
  endfacet
  facet normal 0.970942 -0.239316 0
    outer loop
      vertex 4 0 2
      vertex 3.54182 -1.85889 10
      vertex 3.54182 -1.85889 2
    endloop
  endfacet
  facet normal 0.354605 0.935016 -0
    outer loop
      vertex 2.27226 3.29193 2
      vertex 0.482146 3.97083 10
      vertex 2.27226 3.29193 10
    endloop
  endfacet
  facet normal 0.354605 0.935016 0
    outer loop
      vertex 0.482146 3.97083 10
      vertex 2.27226 3.29193 2
      vertex 0.482146 3.97083 2
    endloop
  endfacet
  facet normal -0.885456 0.464723 0
    outer loop
      vertex -3.88377 0.957262 2
      vertex -2.99404 2.65249 10
      vertex -2.99404 2.65249 2
    endloop
  endfacet
  facet normal -0.885456 0.464723 0
    outer loop
      vertex -2.99404 2.65249 10
      vertex -3.88377 0.957262 2
      vertex -3.88377 0.957262 10
    endloop
  endfacet
  facet normal -0.885456 -0.464723 0
    outer loop
      vertex -2.99404 -2.65249 2
      vertex -3.88377 -0.957262 10
      vertex -3.88377 -0.957262 2
    endloop
  endfacet
  facet normal -0.885456 -0.464723 0
    outer loop
      vertex -3.88377 -0.957262 10
      vertex -2.99404 -2.65249 2
      vertex -2.99404 -2.65249 10
    endloop
  endfacet
  facet normal 0.748511 -0.663123 0
    outer loop
      vertex 2.27226 -3.29193 10
      vertex 3.54182 -1.85889 2
      vertex 3.54182 -1.85889 10
    endloop
  endfacet
  facet normal 0.748511 -0.663123 0
    outer loop
      vertex 3.54182 -1.85889 2
      vertex 2.27226 -3.29193 10
      vertex 2.27226 -3.29193 2
    endloop
  endfacet
  facet normal 0 0 1
    outer loop
      vertex 2 0 10
      vertex 4 0 10
      vertex 3.54182 1.85889 10
    endloop
  endfacet
  facet normal 0 0 1
    outer loop
      vertex 1.24698 1.56366 10
      vertex 3.54182 1.85889 10
      vertex 2.27226 3.29193 10
    endloop
  endfacet
  facet normal 0 0 1
    outer loop
      vertex 4 0 10
      vertex 2 0 10
      vertex 3.54182 -1.85889 10
    endloop
  endfacet
  facet normal -0 0 1
    outer loop
      vertex 1.24698 -1.56366 10
      vertex 3.54182 -1.85889 10
      vertex 2 0 10
    endloop
  endfacet
  facet normal 0 0 1
    outer loop
      vertex 3.54182 1.85889 10
      vertex 1.24698 1.56366 10
      vertex 2 0 10
    endloop
  endfacet
  facet normal 0 0 1
    outer loop
      vertex 0.482146 3.97083 10
      vertex 1.24698 1.56366 10
      vertex 2.27226 3.29193 10
    endloop
  endfacet
  facet normal 0 0 1
    outer loop
      vertex 0.482146 3.97083 10
      vertex -0.445042 1.94986 10
      vertex 1.24698 1.56366 10
    endloop
  endfacet
  facet normal -0 0 1
    outer loop
      vertex -1.41842 3.74006 10
      vertex -0.445042 1.94986 10
      vertex 0.482146 3.97083 10
    endloop
  endfacet
  facet normal -0 0 1
    outer loop
      vertex -2.99404 2.65249 10
      vertex -0.445042 1.94986 10
      vertex -1.41842 3.74006 10
    endloop
  endfacet
  facet normal -0 0 1
    outer loop
      vertex -3.88377 0.957262 10
      vertex -1.80194 0.867767 10
      vertex -2.99404 2.65249 10
    endloop
  endfacet
  facet normal 0 0 1
    outer loop
      vertex -0.445042 1.94986 10
      vertex -2.99404 2.65249 10
      vertex -1.80194 0.867767 10
    endloop
  endfacet
  facet normal 0 0 1
    outer loop
      vertex 3.54182 -1.85889 10
      vertex 1.24698 -1.56366 10
      vertex 2.27226 -3.29193 10
    endloop
  endfacet
  facet normal 0 0 1
    outer loop
      vertex 1.24698 -1.56366 10
      vertex 0.482146 -3.97083 10
      vertex 2.27226 -3.29193 10
    endloop
  endfacet
  facet normal -0 0 1
    outer loop
      vertex -0.445042 -1.94986 10
      vertex 0.482146 -3.97083 10
      vertex 1.24698 -1.56366 10
    endloop
  endfacet
  facet normal 0 0 1
    outer loop
      vertex -0.445042 -1.94986 10
      vertex -1.41842 -3.74006 10
      vertex 0.482146 -3.97083 10
    endloop
  endfacet
  facet normal 0 0 1
    outer loop
      vertex -2.99404 -2.65249 10
      vertex -0.445042 -1.94986 10
      vertex -1.80194 -0.867767 10
    endloop
  endfacet
  facet normal 0 0 1
    outer loop
      vertex -1.80194 0.867767 10
      vertex -3.88377 0.957262 10
      vertex -1.80194 -0.867767 10
    endloop
  endfacet
  facet normal 0 0 1
    outer loop
      vertex -0.445042 -1.94986 10
      vertex -2.99404 -2.65249 10
      vertex -1.41842 -3.74006 10
    endloop
  endfacet
  facet normal 0 0 1
    outer loop
      vertex -3.88377 -0.957262 10
      vertex -1.80194 -0.867767 10
      vertex -3.88377 0.957262 10
    endloop
  endfacet
  facet normal 0 0 1
    outer loop
      vertex -1.80194 -0.867767 10
      vertex -3.88377 -0.957262 10
      vertex -2.99404 -2.65249 10
    endloop
  endfacet
  facet normal 0 0 1
    outer loop
      vertex 4 0 2
      vertex 14 0 2
      vertex 13.6941 2.91076 2
    endloop
  endfacet
  facet normal 0 0 1
    outer loop
      vertex 3.54182 1.85889 2
      vertex 13.6941 2.91076 2
      vertex 12.7896 5.69431 2
    endloop
  endfacet
  facet normal 0 0 1
    outer loop
      vertex 14 0 2
      vertex 4 0 2
      vertex 13.6941 -2.91076 2
    endloop
  endfacet
  facet normal 0 0 1
    outer loop
      vertex 3.54182 1.85889 2
      vertex 12.7896 5.69431 2
      vertex 11.3262 8.22899 2
    endloop
  endfacet
  facet normal -0 0 1
    outer loop
      vertex 3.54182 -1.85889 2
      vertex 13.6941 -2.91076 2
      vertex 4 0 2
    endloop
  endfacet
  facet normal 0 0 1
    outer loop
      vertex 2.27226 3.29193 2
      vertex 11.3262 8.22899 2
      vertex 9.36783 10.404 2
    endloop
  endfacet
  facet normal 0 0 1
    outer loop
      vertex 13.6941 -2.91076 2
      vertex 3.54182 -1.85889 2
      vertex 12.7896 -5.69431 2
    endloop
  endfacet
  facet normal 0 0 1
    outer loop
      vertex 2.27226 3.29193 2
      vertex 9.36783 10.404 2
      vertex 7 12.1244 2
    endloop
  endfacet
  facet normal 0 0 1
    outer loop
      vertex 12.7896 -5.69431 2
      vertex 3.54182 -1.85889 2
      vertex 11.3262 -8.22899 2
    endloop
  endfacet
  facet normal 0 0 1
    outer loop
      vertex 2.27226 3.29193 2
      vertex 7 12.1244 2
      vertex 4.32624 13.3148 2
    endloop
  endfacet
  facet normal -0 0 1
    outer loop
      vertex 2.27226 -3.29193 2
      vertex 11.3262 -8.22899 2
      vertex 3.54182 -1.85889 2
    endloop
  endfacet
  facet normal 0 0 1
    outer loop
      vertex 11.3262 -8.22899 2
      vertex 2.27226 -3.29193 2
      vertex 9.36783 -10.404 2
    endloop
  endfacet
  facet normal 0 0 1
    outer loop
      vertex 13.6941 2.91076 2
      vertex 3.54182 1.85889 2
      vertex 4 0 2
    endloop
  endfacet
  facet normal 0 0 1
    outer loop
      vertex 11.3262 8.22899 2
      vertex 2.27226 3.29193 2
      vertex 3.54182 1.85889 2
    endloop
  endfacet
  facet normal 0 0 1
    outer loop
      vertex 0.482146 3.97083 2
      vertex 4.32624 13.3148 2
      vertex 1.4634 13.9233 2
    endloop
  endfacet
  facet normal 0 0 1
    outer loop
      vertex 4.32624 13.3148 2
      vertex 0.482146 3.97083 2
      vertex 2.27226 3.29193 2
    endloop
  endfacet
  facet normal -0 0 1
    outer loop
      vertex -1.4634 13.9233 2
      vertex 0.482146 3.97083 2
      vertex 1.4634 13.9233 2
    endloop
  endfacet
  facet normal 0 0 1
    outer loop
      vertex 0.482146 3.97083 2
      vertex -1.4634 13.9233 2
      vertex -1.41842 3.74006 2
    endloop
  endfacet
  facet normal -0 0 1
    outer loop
      vertex -4.32624 13.3148 2
      vertex -1.41842 3.74006 2
      vertex -1.4634 13.9233 2
    endloop
  endfacet
  facet normal -0 0 1
    outer loop
      vertex -7 12.1244 2
      vertex -1.41842 3.74006 2
      vertex -4.32624 13.3148 2
    endloop
  endfacet
  facet normal -0 0 1
    outer loop
      vertex -9.36783 10.404 2
      vertex -2.99404 2.65249 2
      vertex -7 12.1244 2
    endloop
  endfacet
  facet normal 0 0 1
    outer loop
      vertex -1.41842 3.74006 2
      vertex -7 12.1244 2
      vertex -2.99404 2.65249 2
    endloop
  endfacet
  facet normal 0 0 1
    outer loop
      vertex 9.36783 -10.404 2
      vertex 2.27226 -3.29193 2
      vertex 7 -12.1244 2
    endloop
  endfacet
  facet normal 0 0 1
    outer loop
      vertex 7 -12.1244 2
      vertex 2.27226 -3.29193 2
      vertex 4.32624 -13.3148 2
    endloop
  endfacet
  facet normal -0 0 1
    outer loop
      vertex 0.482146 -3.97083 2
      vertex 4.32624 -13.3148 2
      vertex 2.27226 -3.29193 2
    endloop
  endfacet
  facet normal 0 0 1
    outer loop
      vertex 4.32624 -13.3148 2
      vertex 0.482146 -3.97083 2
      vertex 1.4634 -13.9233 2
    endloop
  endfacet
  facet normal 0 0 1
    outer loop
      vertex -1.4634 -13.9233 2
      vertex 0.482146 -3.97083 2
      vertex -1.41842 -3.74006 2
    endloop
  endfacet
  facet normal 0 0 1
    outer loop
      vertex 0.482146 -3.97083 2
      vertex -1.4634 -13.9233 2
      vertex 1.4634 -13.9233 2
    endloop
  endfacet
  facet normal 0 0 1
    outer loop
      vertex -7 -12.1244 2
      vertex -1.41842 -3.74006 2
      vertex -2.99404 -2.65249 2
    endloop
  endfacet
  facet normal 0 0 1
    outer loop
      vertex -12.7896 -5.69431 2
      vertex -2.99404 -2.65249 2
      vertex -3.88377 -0.957262 2
    endloop
  endfacet
  facet normal 0 0 1
    outer loop
      vertex -1.41842 -3.74006 2
      vertex -4.32624 -13.3148 2
      vertex -1.4634 -13.9233 2
    endloop
  endfacet
  facet normal -0 0 1
    outer loop
      vertex -11.3262 8.22899 2
      vertex -2.99404 2.65249 2
      vertex -9.36783 10.404 2
    endloop
  endfacet
  facet normal -0 0 1
    outer loop
      vertex -12.7896 5.69431 2
      vertex -2.99404 2.65249 2
      vertex -11.3262 8.22899 2
    endloop
  endfacet
  facet normal 0 0 1
    outer loop
      vertex -1.41842 -3.74006 2
      vertex -7 -12.1244 2
      vertex -4.32624 -13.3148 2
    endloop
  endfacet
  facet normal 0 0 1
    outer loop
      vertex -2.99404 2.65249 2
      vertex -12.7896 5.69431 2
      vertex -3.88377 0.957262 2
    endloop
  endfacet
  facet normal 0 0 1
    outer loop
      vertex -2.99404 -2.65249 2
      vertex -9.36783 -10.404 2
      vertex -7 -12.1244 2
    endloop
  endfacet
  facet normal -0 0 1
    outer loop
      vertex -13.6941 2.91076 2
      vertex -3.88377 0.957262 2
      vertex -12.7896 5.69431 2
    endloop
  endfacet
  facet normal 0 0 1
    outer loop
      vertex -2.99404 -2.65249 2
      vertex -11.3262 -8.22899 2
      vertex -9.36783 -10.404 2
    endloop
  endfacet
  facet normal 0 0 1
    outer loop
      vertex -14 0 2
      vertex -3.88377 0.957262 2
      vertex -13.6941 2.91076 2
    endloop
  endfacet
  facet normal 0 0 1
    outer loop
      vertex -2.99404 -2.65249 2
      vertex -12.7896 -5.69431 2
      vertex -11.3262 -8.22899 2
    endloop
  endfacet
  facet normal 0 0 1
    outer loop
      vertex -3.88377 0.957262 2
      vertex -14 0 2
      vertex -3.88377 -0.957262 2
    endloop
  endfacet
  facet normal 0 0 1
    outer loop
      vertex -3.88377 -0.957262 2
      vertex -13.6941 -2.91076 2
      vertex -12.7896 -5.69431 2
    endloop
  endfacet
  facet normal 0 0 1
    outer loop
      vertex -3.88377 -0.957262 2
      vertex -14 0 2
      vertex -13.6941 -2.91076 2
    endloop
  endfacet
  facet normal 0 0 1
    outer loop
      vertex 1.24698 1.56366 2
      vertex 1.24698 -1.56366 2
      vertex 2 0 2
    endloop
  endfacet
  facet normal 0 0 1
    outer loop
      vertex -0.445042 1.94986 2
      vertex 1.24698 -1.56366 2
      vertex 1.24698 1.56366 2
    endloop
  endfacet
  facet normal 0 0 1
    outer loop
      vertex -0.445042 1.94986 2
      vertex -0.445042 -1.94986 2
      vertex 1.24698 -1.56366 2
    endloop
  endfacet
  facet normal -0 0 1
    outer loop
      vertex -1.80194 0.867767 2
      vertex -0.445042 -1.94986 2
      vertex -0.445042 1.94986 2
    endloop
  endfacet
  facet normal 0 0 1
    outer loop
      vertex -0.445042 -1.94986 2
      vertex -1.80194 0.867767 2
      vertex -1.80194 -0.867767 2
    endloop
  endfacet
  facet normal -0.568065 -0.822984 0
    outer loop
      vertex -2.99404 -2.65249 2
      vertex -1.41842 -3.74006 10
      vertex -2.99404 -2.65249 10
    endloop
  endfacet
  facet normal -0.568065 -0.822984 -0
    outer loop
      vertex -1.41842 -3.74006 10
      vertex -2.99404 -2.65249 2
      vertex -1.41842 -3.74006 2
    endloop
  endfacet
  facet normal 0.354605 -0.935016 0
    outer loop
      vertex 0.482146 -3.97083 2
      vertex 2.27226 -3.29193 10
      vertex 0.482146 -3.97083 10
    endloop
  endfacet
  facet normal 0.354605 -0.935016 0
    outer loop
      vertex 2.27226 -3.29193 10
      vertex 0.482146 -3.97083 2
      vertex 2.27226 -3.29193 2
    endloop
  endfacet
  facet normal -0.120537 -0.992709 0
    outer loop
      vertex -1.41842 -3.74006 2
      vertex 0.482146 -3.97083 10
      vertex -1.41842 -3.74006 10
    endloop
  endfacet
  facet normal -0.120537 -0.992709 -0
    outer loop
      vertex 0.482146 -3.97083 10
      vertex -1.41842 -3.74006 2
      vertex 0.482146 -3.97083 2
    endloop
  endfacet
  facet normal -0.900969 -0.433884 0
    outer loop
      vertex 2 0 2
      vertex 1.24698 1.56366 10
      vertex 1.24698 1.56366 2
    endloop
  endfacet
  facet normal -0.900969 -0.433884 0
    outer loop
      vertex 1.24698 1.56366 10
      vertex 2 0 2
      vertex 2 0 10
    endloop
  endfacet
  facet normal 1 -0 0
    outer loop
      vertex -1.80194 -0.867767 10
      vertex -1.80194 0.867767 2
      vertex -1.80194 0.867767 10
    endloop
  endfacet
  facet normal 1 0 0
    outer loop
      vertex -1.80194 0.867767 2
      vertex -1.80194 -0.867767 10
      vertex -1.80194 -0.867767 2
    endloop
  endfacet
  facet normal -0.222521 -0.974928 0
    outer loop
      vertex -0.445042 1.94986 2
      vertex 1.24698 1.56366 10
      vertex -0.445042 1.94986 10
    endloop
  endfacet
  facet normal -0.222521 -0.974928 -0
    outer loop
      vertex 1.24698 1.56366 10
      vertex -0.445042 1.94986 2
      vertex 1.24698 1.56366 2
    endloop
  endfacet
  facet normal 0.62349 -0.781831 0
    outer loop
      vertex -1.80194 0.867767 2
      vertex -0.445042 1.94986 10
      vertex -1.80194 0.867767 10
    endloop
  endfacet
  facet normal 0.62349 -0.781831 0
    outer loop
      vertex -0.445042 1.94986 10
      vertex -1.80194 0.867767 2
      vertex -0.445042 1.94986 2
    endloop
  endfacet
  facet normal -0.900969 0.433884 0
    outer loop
      vertex 1.24698 -1.56366 2
      vertex 2 0 10
      vertex 2 0 2
    endloop
  endfacet
  facet normal -0.900969 0.433884 0
    outer loop
      vertex 2 0 10
      vertex 1.24698 -1.56366 2
      vertex 1.24698 -1.56366 10
    endloop
  endfacet
  facet normal -0.222521 0.974928 0
    outer loop
      vertex 1.24698 -1.56366 2
      vertex -0.445042 -1.94986 10
      vertex 1.24698 -1.56366 10
    endloop
  endfacet
  facet normal -0.222521 0.974928 0
    outer loop
      vertex -0.445042 -1.94986 10
      vertex 1.24698 -1.56366 2
      vertex -0.445042 -1.94986 2
    endloop
  endfacet
  facet normal 0.62349 0.781831 -0
    outer loop
      vertex -0.445042 -1.94986 2
      vertex -1.80194 -0.867767 10
      vertex -0.445042 -1.94986 10
    endloop
  endfacet
  facet normal 0.62349 0.781831 0
    outer loop
      vertex -1.80194 -0.867767 10
      vertex -0.445042 -1.94986 2
      vertex -1.80194 -0.867767 2
    endloop
  endfacet
  facet normal 0.866026 0.5 0
    outer loop
      vertex 12.7896 5.69431 2
      vertex 11.3262 8.22899 0
      vertex 11.3262 8.22899 2
    endloop
  endfacet
  facet normal 0.866026 0.5 0
    outer loop
      vertex 11.3262 8.22899 0
      vertex 12.7896 5.69431 2
      vertex 12.7896 5.69431 0
    endloop
  endfacet
  facet normal -0.994522 0.104529 0
    outer loop
      vertex -14 0 0
      vertex -13.6941 2.91076 2
      vertex -13.6941 2.91076 0
    endloop
  endfacet
  facet normal -0.994522 0.104529 0
    outer loop
      vertex -13.6941 2.91076 2
      vertex -14 0 0
      vertex -14 0 2
    endloop
  endfacet
  facet normal 0 1 -0
    outer loop
      vertex 1.4634 13.9233 0
      vertex -1.4634 13.9233 2
      vertex 1.4634 13.9233 2
    endloop
  endfacet
  facet normal 0 1 0
    outer loop
      vertex -1.4634 13.9233 2
      vertex 1.4634 13.9233 0
      vertex -1.4634 13.9233 0
    endloop
  endfacet
  facet normal 0.743145 0.669131 0
    outer loop
      vertex 11.3262 8.22899 2
      vertex 9.36783 10.404 0
      vertex 9.36783 10.404 2
    endloop
  endfacet
  facet normal 0.743145 0.669131 0
    outer loop
      vertex 9.36783 10.404 0
      vertex 11.3262 8.22899 2
      vertex 11.3262 8.22899 0
    endloop
  endfacet
  facet normal 0.207912 0.978148 -0
    outer loop
      vertex 4.32624 13.3148 0
      vertex 1.4634 13.9233 2
      vertex 4.32624 13.3148 2
    endloop
  endfacet
  facet normal 0.207912 0.978148 0
    outer loop
      vertex 1.4634 13.9233 2
      vertex 4.32624 13.3148 0
      vertex 1.4634 13.9233 0
    endloop
  endfacet
  facet normal -0.406737 0.913545 0
    outer loop
      vertex -4.32624 13.3148 0
      vertex -7 12.1244 2
      vertex -4.32624 13.3148 2
    endloop
  endfacet
  facet normal -0.406737 0.913545 0
    outer loop
      vertex -7 12.1244 2
      vertex -4.32624 13.3148 0
      vertex -7 12.1244 0
    endloop
  endfacet
  facet normal -0.951056 0.309017 0
    outer loop
      vertex -13.6941 2.91076 0
      vertex -12.7896 5.69431 2
      vertex -12.7896 5.69431 0
    endloop
  endfacet
  facet normal -0.951056 0.309017 0
    outer loop
      vertex -12.7896 5.69431 2
      vertex -13.6941 2.91076 0
      vertex -13.6941 2.91076 2
    endloop
  endfacet
  facet normal 0.994522 -0.104529 0
    outer loop
      vertex 13.6941 -2.91076 2
      vertex 14 0 0
      vertex 14 0 2
    endloop
  endfacet
  facet normal 0.994522 -0.104529 0
    outer loop
      vertex 14 0 0
      vertex 13.6941 -2.91076 2
      vertex 13.6941 -2.91076 0
    endloop
  endfacet
  facet normal 0.207912 -0.978148 0
    outer loop
      vertex 1.4634 -13.9233 0
      vertex 4.32624 -13.3148 2
      vertex 1.4634 -13.9233 2
    endloop
  endfacet
  facet normal 0.207912 -0.978148 0
    outer loop
      vertex 4.32624 -13.3148 2
      vertex 1.4634 -13.9233 0
      vertex 4.32624 -13.3148 0
    endloop
  endfacet
  facet normal 0.587785 0.809017 -0
    outer loop
      vertex 9.36783 10.404 0
      vertex 7 12.1244 2
      vertex 9.36783 10.404 2
    endloop
  endfacet
  facet normal 0.587785 0.809017 0
    outer loop
      vertex 7 12.1244 2
      vertex 9.36783 10.404 0
      vertex 7 12.1244 0
    endloop
  endfacet
  facet normal 0.406737 0.913545 -0
    outer loop
      vertex 7 12.1244 0
      vertex 4.32624 13.3148 2
      vertex 7 12.1244 2
    endloop
  endfacet
  facet normal 0.406737 0.913545 0
    outer loop
      vertex 4.32624 13.3148 2
      vertex 7 12.1244 0
      vertex 4.32624 13.3148 0
    endloop
  endfacet
  facet normal -0.866026 0.5 0
    outer loop
      vertex -12.7896 5.69431 0
      vertex -11.3262 8.22899 2
      vertex -11.3262 8.22899 0
    endloop
  endfacet
  facet normal -0.866026 0.5 0
    outer loop
      vertex -11.3262 8.22899 2
      vertex -12.7896 5.69431 0
      vertex -12.7896 5.69431 2
    endloop
  endfacet
  facet normal -0.587785 0.809017 0
    outer loop
      vertex -7 12.1244 0
      vertex -9.36783 10.404 2
      vertex -7 12.1244 2
    endloop
  endfacet
  facet normal -0.587785 0.809017 0
    outer loop
      vertex -9.36783 10.404 2
      vertex -7 12.1244 0
      vertex -9.36783 10.404 0
    endloop
  endfacet
  facet normal -0.207912 0.978148 0
    outer loop
      vertex -1.4634 13.9233 0
      vertex -4.32624 13.3148 2
      vertex -1.4634 13.9233 2
    endloop
  endfacet
  facet normal -0.207912 0.978148 0
    outer loop
      vertex -4.32624 13.3148 2
      vertex -1.4634 13.9233 0
      vertex -4.32624 13.3148 0
    endloop
  endfacet
  facet normal -0.743145 0.669131 0
    outer loop
      vertex -11.3262 8.22899 0
      vertex -9.36783 10.404 2
      vertex -9.36783 10.404 0
    endloop
  endfacet
  facet normal -0.743145 0.669131 0
    outer loop
      vertex -9.36783 10.404 2
      vertex -11.3262 8.22899 0
      vertex -11.3262 8.22899 2
    endloop
  endfacet
  facet normal 0.994522 0.104529 0
    outer loop
      vertex 14 0 2
      vertex 13.6941 2.91076 0
      vertex 13.6941 2.91076 2
    endloop
  endfacet
  facet normal 0.994522 0.104529 0
    outer loop
      vertex 13.6941 2.91076 0
      vertex 14 0 2
      vertex 14 0 0
    endloop
  endfacet
  facet normal 0.951056 -0.309017 0
    outer loop
      vertex 12.7896 -5.69431 2
      vertex 13.6941 -2.91076 0
      vertex 13.6941 -2.91076 2
    endloop
  endfacet
  facet normal 0.951056 -0.309017 0
    outer loop
      vertex 13.6941 -2.91076 0
      vertex 12.7896 -5.69431 2
      vertex 12.7896 -5.69431 0
    endloop
  endfacet
  facet normal -0.994522 -0.104529 0
    outer loop
      vertex -13.6941 -2.91076 0
      vertex -14 0 2
      vertex -14 0 0
    endloop
  endfacet
  facet normal -0.994522 -0.104529 0
    outer loop
      vertex -14 0 2
      vertex -13.6941 -2.91076 0
      vertex -13.6941 -2.91076 2
    endloop
  endfacet
  facet normal 0.587785 -0.809017 0
    outer loop
      vertex 7 -12.1244 0
      vertex 9.36783 -10.404 2
      vertex 7 -12.1244 2
    endloop
  endfacet
  facet normal 0.587785 -0.809017 0
    outer loop
      vertex 9.36783 -10.404 2
      vertex 7 -12.1244 0
      vertex 9.36783 -10.404 0
    endloop
  endfacet
  facet normal 0.951056 0.309017 0
    outer loop
      vertex 13.6941 2.91076 2
      vertex 12.7896 5.69431 0
      vertex 12.7896 5.69431 2
    endloop
  endfacet
  facet normal 0.951056 0.309017 0
    outer loop
      vertex 12.7896 5.69431 0
      vertex 13.6941 2.91076 2
      vertex 13.6941 2.91076 0
    endloop
  endfacet
  facet normal 0.866026 -0.5 0
    outer loop
      vertex 11.3262 -8.22899 2
      vertex 12.7896 -5.69431 0
      vertex 12.7896 -5.69431 2
    endloop
  endfacet
  facet normal 0.866026 -0.5 0
    outer loop
      vertex 12.7896 -5.69431 0
      vertex 11.3262 -8.22899 2
      vertex 11.3262 -8.22899 0
    endloop
  endfacet
  facet normal 0 -1 0
    outer loop
      vertex -1.4634 -13.9233 0
      vertex 1.4634 -13.9233 2
      vertex -1.4634 -13.9233 2
    endloop
  endfacet
  facet normal 0 -1 -0
    outer loop
      vertex 1.4634 -13.9233 2
      vertex -1.4634 -13.9233 0
      vertex 1.4634 -13.9233 0
    endloop
  endfacet
  facet normal 0.406737 -0.913545 0
    outer loop
      vertex 4.32624 -13.3148 0
      vertex 7 -12.1244 2
      vertex 4.32624 -13.3148 2
    endloop
  endfacet
  facet normal 0.406737 -0.913545 0
    outer loop
      vertex 7 -12.1244 2
      vertex 4.32624 -13.3148 0
      vertex 7 -12.1244 0
    endloop
  endfacet
  facet normal -0.866026 -0.5 0
    outer loop
      vertex -11.3262 -8.22899 0
      vertex -12.7896 -5.69431 2
      vertex -12.7896 -5.69431 0
    endloop
  endfacet
  facet normal -0.866026 -0.5 0
    outer loop
      vertex -12.7896 -5.69431 2
      vertex -11.3262 -8.22899 0
      vertex -11.3262 -8.22899 2
    endloop
  endfacet
  facet normal 0 0 -1
    outer loop
      vertex 13.6941 -2.91076 0
      vertex 13.6941 2.91076 0
      vertex 14 0 0
    endloop
  endfacet
  facet normal 0 0 -1
    outer loop
      vertex 12.7896 -5.69431 0
      vertex 13.6941 2.91076 0
      vertex 13.6941 -2.91076 0
    endloop
  endfacet
  facet normal 0 0 -1
    outer loop
      vertex 12.7896 -5.69431 0
      vertex 12.7896 5.69431 0
      vertex 13.6941 2.91076 0
    endloop
  endfacet
  facet normal 0 0 -1
    outer loop
      vertex 11.3262 -8.22899 0
      vertex 12.7896 5.69431 0
      vertex 12.7896 -5.69431 0
    endloop
  endfacet
  facet normal 0 0 -1
    outer loop
      vertex 11.3262 -8.22899 0
      vertex 11.3262 8.22899 0
      vertex 12.7896 5.69431 0
    endloop
  endfacet
  facet normal 0 0 -1
    outer loop
      vertex 9.36783 -10.404 0
      vertex 11.3262 8.22899 0
      vertex 11.3262 -8.22899 0
    endloop
  endfacet
  facet normal 0 0 -1
    outer loop
      vertex 9.36783 -10.404 0
      vertex 9.36783 10.404 0
      vertex 11.3262 8.22899 0
    endloop
  endfacet
  facet normal 0 0 -1
    outer loop
      vertex 7 -12.1244 0
      vertex 9.36783 10.404 0
      vertex 9.36783 -10.404 0
    endloop
  endfacet
  facet normal 0 0 -1
    outer loop
      vertex 7 -12.1244 0
      vertex 7 12.1244 0
      vertex 9.36783 10.404 0
    endloop
  endfacet
  facet normal 0 0 -1
    outer loop
      vertex 4.32624 -13.3148 0
      vertex 7 12.1244 0
      vertex 7 -12.1244 0
    endloop
  endfacet
  facet normal 0 0 -1
    outer loop
      vertex 4.32624 -13.3148 0
      vertex 4.32624 13.3148 0
      vertex 7 12.1244 0
    endloop
  endfacet
  facet normal 0 0 -1
    outer loop
      vertex 1.4634 -13.9233 0
      vertex 4.32624 13.3148 0
      vertex 4.32624 -13.3148 0
    endloop
  endfacet
  facet normal 0 0 -1
    outer loop
      vertex 1.4634 -13.9233 0
      vertex 1.4634 13.9233 0
      vertex 4.32624 13.3148 0
    endloop
  endfacet
  facet normal 0 0 -1
    outer loop
      vertex -1.4634 -13.9233 0
      vertex 1.4634 13.9233 0
      vertex 1.4634 -13.9233 0
    endloop
  endfacet
  facet normal 0 0 -1
    outer loop
      vertex -1.4634 -13.9233 0
      vertex -1.4634 13.9233 0
      vertex 1.4634 13.9233 0
    endloop
  endfacet
  facet normal 0 0 -1
    outer loop
      vertex -4.32624 -13.3148 0
      vertex -1.4634 13.9233 0
      vertex -1.4634 -13.9233 0
    endloop
  endfacet
  facet normal 0 0 -1
    outer loop
      vertex -4.32624 -13.3148 0
      vertex -4.32624 13.3148 0
      vertex -1.4634 13.9233 0
    endloop
  endfacet
  facet normal 0 0 -1
    outer loop
      vertex -4.32624 -13.3148 0
      vertex -7 12.1244 0
      vertex -4.32624 13.3148 0
    endloop
  endfacet
  facet normal 0 0 -1
    outer loop
      vertex -7 -12.1244 0
      vertex -7 12.1244 0
      vertex -4.32624 -13.3148 0
    endloop
  endfacet
  facet normal 0 0 -1
    outer loop
      vertex -9.36783 -10.404 0
      vertex -7 12.1244 0
      vertex -7 -12.1244 0
    endloop
  endfacet
  facet normal 0 0 -1
    outer loop
      vertex -9.36783 -10.404 0
      vertex -9.36783 10.404 0
      vertex -7 12.1244 0
    endloop
  endfacet
  facet normal 0 0 -1
    outer loop
      vertex -11.3262 -8.22899 0
      vertex -9.36783 10.404 0
      vertex -9.36783 -10.404 0
    endloop
  endfacet
  facet normal 0 0 -1
    outer loop
      vertex -11.3262 -8.22899 0
      vertex -11.3262 8.22899 0
      vertex -9.36783 10.404 0
    endloop
  endfacet
  facet normal 0 0 -1
    outer loop
      vertex -12.7896 -5.69431 0
      vertex -11.3262 8.22899 0
      vertex -11.3262 -8.22899 0
    endloop
  endfacet
  facet normal 0 0 -1
    outer loop
      vertex -12.7896 -5.69431 0
      vertex -12.7896 5.69431 0
      vertex -11.3262 8.22899 0
    endloop
  endfacet
  facet normal 0 0 -1
    outer loop
      vertex -13.6941 -2.91076 0
      vertex -12.7896 5.69431 0
      vertex -12.7896 -5.69431 0
    endloop
  endfacet
  facet normal 0 0 -1
    outer loop
      vertex -13.6941 -2.91076 0
      vertex -13.6941 2.91076 0
      vertex -12.7896 5.69431 0
    endloop
  endfacet
  facet normal 0 -0 -1
    outer loop
      vertex -13.6941 2.91076 0
      vertex -13.6941 -2.91076 0
      vertex -14 0 0
    endloop
  endfacet
  facet normal -0.951056 -0.309017 0
    outer loop
      vertex -12.7896 -5.69431 0
      vertex -13.6941 -2.91076 2
      vertex -13.6941 -2.91076 0
    endloop
  endfacet
  facet normal -0.951056 -0.309017 0
    outer loop
      vertex -13.6941 -2.91076 2
      vertex -12.7896 -5.69431 0
      vertex -12.7896 -5.69431 2
    endloop
  endfacet
  facet normal -0.743145 -0.669131 0
    outer loop
      vertex -9.36783 -10.404 0
      vertex -11.3262 -8.22899 2
      vertex -11.3262 -8.22899 0
    endloop
  endfacet
  facet normal -0.743145 -0.669131 0
    outer loop
      vertex -11.3262 -8.22899 2
      vertex -9.36783 -10.404 0
      vertex -9.36783 -10.404 2
    endloop
  endfacet
  facet normal -0.207912 -0.978148 0
    outer loop
      vertex -4.32624 -13.3148 0
      vertex -1.4634 -13.9233 2
      vertex -4.32624 -13.3148 2
    endloop
  endfacet
  facet normal -0.207912 -0.978148 -0
    outer loop
      vertex -1.4634 -13.9233 2
      vertex -4.32624 -13.3148 0
      vertex -1.4634 -13.9233 0
    endloop
  endfacet
  facet normal 0.743145 -0.669131 0
    outer loop
      vertex 9.36783 -10.404 2
      vertex 11.3262 -8.22899 0
      vertex 11.3262 -8.22899 2
    endloop
  endfacet
  facet normal 0.743145 -0.669131 0
    outer loop
      vertex 11.3262 -8.22899 0
      vertex 9.36783 -10.404 2
      vertex 9.36783 -10.404 0
    endloop
  endfacet
  facet normal -0.406737 -0.913545 0
    outer loop
      vertex -7 -12.1244 0
      vertex -4.32624 -13.3148 2
      vertex -7 -12.1244 2
    endloop
  endfacet
  facet normal -0.406737 -0.913545 -0
    outer loop
      vertex -4.32624 -13.3148 2
      vertex -7 -12.1244 0
      vertex -4.32624 -13.3148 0
    endloop
  endfacet
  facet normal -0.587785 -0.809017 0
    outer loop
      vertex -9.36783 -10.404 0
      vertex -7 -12.1244 2
      vertex -9.36783 -10.404 2
    endloop
  endfacet
  facet normal -0.587785 -0.809017 -0
    outer loop
      vertex -7 -12.1244 2
      vertex -9.36783 -10.404 0
      vertex -7 -12.1244 0
    endloop
  endfacet
endsolid OpenSCAD_Model
