<?xml version="1.0" encoding="UTF-8" standalone="no"?>
<svg
   id="Layer_1"
   data-name="Layer 1"
   viewBox="0 0 640 340"
   version="1.1"
   sodipodi:docname="Öruggt Net black and white-wide-slogan.svg"
   width="640"
   height="340"
   inkscape:version="1.3.2 (091e20e, 2023-11-25, custom)"
   inkscape:export-filename="Öruggt Net black and white-wide-slogan-tp.png"
   inkscape:export-xdpi="96"
   inkscape:export-ydpi="96"
   xmlns:inkscape="http://www.inkscape.org/namespaces/inkscape"
   xmlns:sodipodi="http://sodipodi.sourceforge.net/DTD/sodipodi-0.dtd"
   xmlns="http://www.w3.org/2000/svg"
   xmlns:svg="http://www.w3.org/2000/svg">
  <sodipodi:namedview
     id="namedview14"
     pagecolor="#ffffff"
     bordercolor="#000000"
     borderopacity="0.25"
     inkscape:showpageshadow="2"
     inkscape:pageopacity="0.0"
     inkscape:pagecheckerboard="0"
     inkscape:deskcolor="#d1d1d1"
     inkscape:zoom="1"
     inkscape:cx="293.5"
     inkscape:cy="250.5"
     inkscape:window-width="1350"
     inkscape:window-height="915"
     inkscape:window-x="1980"
     inkscape:window-y="1102"
     inkscape:window-maximized="0"
     inkscape:current-layer="Layer_1"
     inkscape:export-bgcolor="#ffffff00" />
  <defs
     id="defs1">
    <rect
       x="237.76801"
       y="199.83507"
       width="340.57175"
       height="34.359539"
       id="rect14" />
    <style
       id="style1">
      .cls-1, .cls-2 {
        stroke-width: 0px;
      }

      .cls-2 {
        fill: #e7352d;
      }
    </style>
  </defs>
  <path
     class="cls-1"
     d="m 172.15647,217.6206 c -2.53,-0.01 -4.18,-1.71 -4.23,-4.37 -0.17,-9.41 -0.3,-18.82 -0.46,-28.24 -0.03,-1.52 0.53,-2.68 1.63,-3.64 0.34,-0.3 0.62,-0.89 0.63,-1.37 0.07,-2.37 -0.08,-4.75 0.06,-7.12 0.59,-10 8.2,-18.32 17.2,-18.89 9.84,-0.62 18.52,6.3 20.49,16.64 0.58,3.04 0.43,6.21 0.66,9.32 0.03,0.46 0.21,1.07 0.53,1.31 1.33,1.04 1.89,2.37 1.91,4.09 0.12,9.15 0.28,18.3 0.42,27.45 0.05,3.28 -1.4,4.85 -4.5,4.85 -5.66,0 -11.32,0 -16.98,-0.02 -5.79,0 -11.57,0 -17.36,-0.03 z m 28.43,-37 c 1.46,-5.34 -0.63,-12.76 -4.64,-16.15 -3.5,-2.96 -7.42,-3.72 -11.51,-1.93 -4.42,1.94 -6.85,5.67 -7.33,10.67 -0.23,2.38 0.03,4.83 0.07,7.39 7.86,0 15.63,0.02 23.41,0.02 z m -8.49,23.53 c -0.36,-1.82 -0.69,-3.56 -1.04,-5.3 -0.19,-0.92 -0.26,-1.6 0.63,-2.34 1.69,-1.4 1.6,-4.11 0.01,-5.7 -1.55,-1.56 -3.94,-1.48 -5.34,0.18 -1.44,1.69 -1.27,4.32 0.53,5.69 0.83,0.63 0.87,1.19 0.68,2.08 -0.37,1.7 -0.65,3.42 -0.96,5.14 0,0.04 0.01,0.09 0.04,0.24 1.81,0 3.54,0 5.45,0 z"
     id="path1" />
  <path
     class="cls-1"
     d="m 43.536476,126.1806 c 0,5.75 -0.22,11.38 0.17,16.96 0.09,1.27 2.11,2.74 3.56,3.54 10.75,5.92 21.64,11.57 32.3,17.64 1.82,1.04 3.32,3.5 3.95,5.61 1.36,4.6 -1.26,7.42 -5.18,9.55 -10.66,5.79 -21.2,11.81 -31.88,17.56 -2.62,1.41 -3.68,2.97 -3.6,6.07 0.3,11.58 0.25,23.16 0.32,34.75 0,1.24 0,2.49 -0.16,3.71 -0.46,3.41 -2.66,5.17 -5.92,5.2 -3.41,0.03 -5.87,-1.77 -6.39,-5.26 -0.36,-2.43 -0.2,-4.95 -0.21,-7.43 -0.03,-12.69 0.08,-25.38 -0.13,-38.06 -0.05,-3.2 0.98,-5.16 3.7,-6.64 9.43,-5.16 18.81,-10.41 28.21,-15.63 0.96,-0.53 1.92,-1.04 3.61,-1.96 -1.65,-1.02 -2.79,-1.84 -4.01,-2.48 -8.44,-4.39 -16.84,-8.86 -25.36,-13.07 -4.32,-2.14 -6.18,-5.04 -6.09,-10.07 0.23,-12.95 -0.08,-25.92 -0.23,-38.87 -0.12,-10.199997 3.69,-16.029997 13.04,-20.359997 1.08,-0.5 2.06,-2.41 2.12,-3.7 0.31,-7.44 0.38,-14.89 0.41,-22.33 0.01,-2.77 1.07,-4.61 3.53,-5.97 12.05,-6.69 24,-13.56 36.12,-20.129998 1.39,-0.75 3.84,-0.57 5.36,0.13 5.99,2.79 11.970004,5.699998 17.640004,9.079998 3.24,1.93 5.61,1.56 8.63,-0.27 10.14999,-6.129998 20.43999,-12.009998 30.69999,-17.959998 1.66,-0.96 3.39,-1.87 5.17,-2.58 3.18,-1.26 5.7,-0.2 7.41,2.66 1.8,3.01 1.51,5.89 -1.3,8.11 -1.83,1.45 -3.89,2.6 -5.91,3.79 -8.77,5.139998 -17.56,10.239998 -26.88,15.669998 6.16,3.38 11.79,6.72 17.69,9.5 1.26,0.59 3.67,-0.51 5.22,-1.4 13.29,-7.59 26.62,-15.11 39.67,-23.089998 4.94,-3.02 8.85,-3.19 13.94,-0.19 12.23,7.209998 24.8,13.819998 37.32,20.529998 3.04,1.63 4.52,3.85 4.49,7.23 -0.02,2.21 0.04,4.41 0.04,6.62 -0.03,54.329997 -0.13,108.659997 0,162.999997 0.01,4.94 -1.57,7.73 -5.86,10.1 -31.48,17.42 -62.87,35.02 -94.21,52.7 -4.23,2.39 -7.72,2.73 -12.18,0.2 -10.05999,-5.71 -20.42999,-10.91 -30.78999,-16.07 -4.790004,-2.38 -6.610004,-5.66 -6.530004,-11.13 0.39,-27.3 0.37,-54.6 0.5,-81.91 0,-1.38 0.02,-2.76 0.08,-4.14 0.14,-3.66 2.32,-5.57 5.700004,-5.93 3.46,-0.36 5.36,1.86 6.2,4.9 0.43,1.56 0.38,3.28 0.38,4.92 0.01,25.79 0.08,51.57 -0.11,77.36 -0.03,3.75 1.19,5.72 4.47,7.31 6.53,3.17 12.85999,6.73 19.68999,10.35 0.12,-1.66 0.28,-2.83 0.28,-4 0.04,-32.82 0.03,-65.64 0.16,-98.46 0.01,-3.01 -0.91,-4.65 -3.59,-6.11 -13.77999,-7.55 -27.40999,-15.39 -41.169994,-22.97 -3.65,-2.01 -5.21,-4.46 -5.16,-8.84 0.26,-22.34 0.09,-44.679997 0.23,-67.019997 0.02,-2.72 -0.8,-4.33 -3.11,-5.65 -3.7,-2.13 -7.46,-4.26 -10.81,-6.88 -2.93,-2.29 -5.27,-1.73 -8.27,-0.29 -2.93,1.4 -2.38,3.67 -2.44,5.92 -0.05,1.79 0.08,3.59 -0.04,5.38 -0.4,5.83 -0.05,10.47 5.94,14.59 7.85,5.4 9.15,17.369997 4.79,25.989997 -4.23,8.35 -12.46,12.16 -22.58,10.46 -0.66,-0.11 -1.35,-0.11 -2.64,-0.2 z m 101.139994,157.4 c 1.86,-0.93 2.96,-1.43 4.01,-2.02 25.85,-14.48 51.64,-29.06 77.58,-43.35 4.04,-2.23 5.49,-4.71 5.48,-9.31 -0.08,-47 0.08,-94 0.18,-140.999997 0,-2.42 0,-4.85 0,-7.75 -1.42,0.56 -2.2,0.77 -2.87,1.16 -26.93,15.63 -53.83,31.319997 -80.81,46.879997 -2.77,1.6 -3.62,3.48 -3.62,6.61 0.09,47.69 0.05,95.38 0.05,143.07 0,1.64 0,3.27 0,5.71 z m -37.58999,-182.78 c 9.8,5.18 19.02999,9.79 27.95999,14.92 3.61,2.07 6.25,1.89 9.76,-0.17 24.09,-14.19 48.3,-28.159997 72.47,-42.209997 3.48,-2.02 6.93,-4.11 10.76,-6.38 -10.28,-5.55 -20.01,-10.68 -29.6,-16.07 -2.38,-1.34 -4.09,-1.26 -6.38,0.12 -12.87,7.72 -25.82,15.31 -38.78,22.89 -15.08,8.82 -30.17999,17.58 -46.18999,26.899997 z m 25.47999,62.54 c 0,-11.42 0.1,-21.85 -0.14,-32.28 -0.03,-1.16 -1.73,-2.66 -3.01,-3.37 -9.65999,-5.3 -19.39999,-10.45 -29.12999,-15.62 -1.290004,-0.68 -2.660004,-1.21 -4.780004,-2.17 0,10.72 -0.07,20.71 0.11,30.69 0.02,1 1.44,2.26 2.51,2.92 4.100004,2.53 8.320004,4.86 12.500004,7.26 7.03,4.03 14.04999,8.05 21.92999,12.57 z M 95.196476,93.290603 c 12.630004,-7.27 24.340004,-14 36.879994,-21.22 -6.95,-3.78 -13.17999,-7.17 -19.40999,-10.56 -5.2,2.76 -10.41,5.53 -15.610004,8.29 -0.24,0.13 -0.53,0.24 -0.69,0.45 -0.42,0.53 -1.11,1.09 -1.12,1.65 -0.08,6.82 -0.05,13.64 -0.05,21.39 z m -45.28,4.5 c -4.33,0.04 -7.68,3.859997 -7.56,8.599997 0.11,4.54 3.79,8.29 8.07,8.23 4.67,-0.07 8.44,-3.84 8.38,-8.39 -0.05,-4.59 -4.15,-8.489997 -8.89,-8.439997 z m 49.66,-43.7 c -10.92,-6.3 -14.96,-6.09 -22.46,0.88 2.88,1.71 5.63,3.51 8.54,4.99 0.93,0.47 2.49,0.54 3.4,0.08 3.4,-1.72 6.65,-3.73 10.51,-5.96 z"
     id="path2" />
  <path
     class="cls-2"
     d="m 64.116476,241.9306 c 0,-5.78 -0.09,-11.57 0.03,-17.35 0.09,-4.47 2.24,-6.84 5.94,-6.94 3.77,-0.11 6.24,2.15 6.28,6.6 0.09,12.11 -0.03,24.23 -0.24,36.34 -0.06,3.8 -2.52,5.95 -6.01,5.91 -3.57,-0.04 -5.85,-2.13 -5.95,-5.98 -0.16,-6.19 -0.04,-12.39 -0.05,-18.58 z"
     id="path3" />
  <path
     class="cls-2"
     d="m 161.11647,198.1406 c 0,12.44 0,24.89 0,37.33 0,2.9 -2.51,5.62 -5.16,5.65 -2.28,0.03 -4.78,-2.93 -4.78,-5.74 -0.02,-24.68 -0.06,-49.35 0,-74.03 0,-1.73 0.19,-3.97 1.25,-5.03 1.12,-1.11 3.48,-1.68 5.13,-1.42 2.41,0.37 3.59,2.34 3.58,4.95 -0.05,12.76 -0.02,25.53 -0.02,38.29 z"
     id="path4" />
  <path
     class="cls-2"
     d="m 227.41647,165.0706 c 0,18.6 0,37.2 0,55.8 0,4.33 -2.51,8.4 -5.16,8.45 -2.28,0.04 -4.78,-4.38 -4.78,-8.58 -0.02,-36.88 -0.06,-73.76 0,-110.65 0,-2.58 0.19,-5.94 1.25,-7.52 1.12,-1.66 3.48,-2.5 5.13,-2.13 2.41,0.55 3.59,3.5 3.58,7.4 -0.05,19.08 -0.02,38.15 -0.02,57.23 z"
     id="path5" />
  <g
     id="g14"
     transform="translate(185.07751,-229.79659)">
    <path
       class="cls-1"
       d="m 93.23,375.41 c 12.06,0 21.85,9.79 21.85,22.49 0,12.7 -9.37,22.54 -21.85,22.54 -12.48,0 -21.91,-9.85 -21.91,-22.54 0,-12.69 9.95,-22.49 21.91,-22.49 z m 0,35.44 c 7.9,0 11.16,-6.48 11.16,-12.95 0,-6.47 -3.48,-12.95 -11.16,-12.95 -7.68,0 -11.22,6.48 -11.22,12.95 0,6.47 3.11,12.95 11.22,12.95 z m -1.42,-44.44 c 0,2.69 -2.16,4.85 -4.85,4.85 -2.69,0 -4.84,-2.16 -4.84,-4.85 0,-2.69 2.16,-4.85 4.84,-4.85 2.68,0 4.85,2.16 4.85,4.85 z m 12.48,0 c 0,2.69 -2.16,4.85 -4.85,4.85 -2.69,0 -4.84,-2.16 -4.84,-4.85 0,-2.69 2.16,-4.85 4.84,-4.85 2.68,0 4.85,2.16 4.85,4.85 z"
       id="path6" />
    <path
       class="cls-1"
       d="m 134.98,376.2 c 8.06,0 14.17,4.37 14.17,12.9 0,6.53 -3.58,10.9 -8.9,12.58 l 14.96,17.96 h -12.59 l -13.27,-17.17 v 17.17 h -9.9 V 376.2 Z m -4.47,19.28 c 3.74,0 8.22,-0.26 8.22,-5.69 0,-5.43 -4.48,-5.69 -8.22,-5.69 h -1.16 v 11.38 z"
       id="path7" />
    <path
       class="cls-1"
       d="m 190.53,404.22 c 0,10.74 -5.9,16.22 -16.96,16.22 -11.06,0 -16.96,-5.48 -16.96,-16.22 v -28.01 h 9.9 v 25.12 c 0,7.27 2.21,9.37 7.06,9.37 4.85,0 7.06,-2.11 7.06,-9.37 v -25.12 h 9.9 z"
       id="path8" />
    <path
       class="cls-1"
       d="m 235.6,404.74 c -2.37,11.01 -11.53,15.69 -20.06,15.69 -11.69,0 -21.17,-10.06 -21.17,-22.49 0,-12.43 8.95,-22.54 21.17,-22.54 7.64,0 12.95,2.84 16.75,7.43 l -6.48,7.11 c -2.53,-4.05 -5.84,-5.58 -9.69,-5.58 -6.11,0 -11.06,6.06 -11.06,13.59 0,7.53 4.95,13.38 11.06,13.38 4.74,0 9.43,-3.05 9.43,-8.37 h -10 v -7.64 h 20.06 v 9.43 z"
       id="path9" />
    <path
       class="cls-1"
       d="m 279.25,404.74 c -2.37,11.01 -11.53,15.69 -20.06,15.69 -11.69,0 -21.17,-10.06 -21.17,-22.49 0,-12.43 8.95,-22.54 21.17,-22.54 7.64,0 12.95,2.84 16.75,7.43 l -6.48,7.11 c -2.53,-4.05 -5.85,-5.58 -9.69,-5.58 -6.11,0 -11.06,6.06 -11.06,13.59 0,7.53 4.95,13.38 11.06,13.38 4.74,0 9.43,-3.05 9.43,-8.37 h -10 v -7.64 h 20.06 v 9.43 z"
       id="path10" />
    <path
       class="cls-1"
       d="m 278.35,376.2 h 30.54 v 8.69 h -10.32 v 34.76 h -9.9 v -34.76 h -10.32 z"
       id="path11" />
    <path
       class="cls-1"
       d="m 336.74,419.65 h -9.9 v -43.44 h 9.9 l 17.27,26.96 h 0.11 v -26.96 h 9.9 v 43.44 h -9.9 l -17.27,-26.96 h -0.11 z"
       id="path12" />
    <path
       class="cls-1"
       d="m 395.19,384.89 h -14.96 v 8.64 h 14.32 v 8.69 h -14.32 v 8.74 h 14.96 v 8.69 h -24.85 v -43.44 h 24.85 v 8.69 z"
       id="path13" />
    <path
       class="cls-1"
       d="m 398.13,376.2 h 30.54 v 8.69 h -10.32 v 34.76 h -9.9 v -34.76 h -10.32 z"
       id="path14" />
  </g>
  <path
     style="font-weight:bold;font-size:26.6667px;font-family:Sans;-inkscape-font-specification:'Sans, Bold';white-space:pre"
     d="m 251.0228,205.06266 h 4.07553 l -6.47136,19.03648 h -4.40105 l -6.45834,-19.03648 h 4.07552 l 3.58074,11.32814 q 0.29948,1.00261 0.61198,2.34375 0.32552,1.32813 0.40364,1.84897 0.14323,-1.19792 0.97657,-4.19272 z m 5.98959,0.71615 q 0,-1.94011 2.16147,-1.94011 2.16146,0 2.16146,1.94011 0,0.92448 -0.54688,1.44531 -0.53385,0.50782 -1.61458,0.50782 -2.16147,0 -2.16147,-1.95313 z m 4.14063,18.32033 h -3.97135 v -14.55731 h 3.97135 z m 8.72397,-16.90106 q -1.15885,-0.76823 -1.97917,-1.21094 l 1.31511,-2.29167 q 1.92709,0.8724 3.35938,1.84896 l 2.92969,-1.82291 1.30209,2.00521 -2.21355,1.35416 q 2.03125,1.86199 2.9948,4.19272 0.96354,2.33073 0.96354,5.36459 0,3.64584 -1.88802,5.69011 -1.88803,2.03125 -5.20834,2.03125 -3.19011,0 -5.10418,-1.78385 -1.91406,-1.78386 -1.91406,-4.84376 0,-3.03386 1.69271,-4.80469 1.69271,-1.78386 4.57032,-1.78386 2.66927,0 3.58073,1.27604 l 0.10417,-0.0521 q -0.83334,-2.01823 -2.50001,-3.60678 l -2.99479,1.84896 -1.30209,-2.03125 z m 4.60938,9.97397 q 0,-1.40625 -0.79427,-2.2526 -0.79427,-0.84636 -2.1875,-0.84636 -1.57552,0 -2.30469,0.89844 -0.71615,0.88542 -0.71615,2.78646 0,1.82292 0.78125,2.7474 0.78125,0.92448 2.23959,0.92448 1.60156,0 2.29167,-1.06771 0.6901,-1.06771 0.6901,-3.19011 z m 23.51566,6.92709 -0.76823,-1.97916 h -0.10417 q -1.0026,1.26302 -2.07031,1.75781 -1.05469,0.48177 -2.76042,0.48177 -2.09636,0 -3.3073,-1.19792 -1.19792,-1.19791 -1.19792,-3.41146 0,-2.31771 1.61459,-3.41146 1.6276,-1.10677 4.89584,-1.22396 l 2.52604,-0.0781 v -0.63802 q 0,-2.21354 -2.26563,-2.21354 -1.74479,0 -4.10156,1.05469 l -1.31511,-2.6823 q 2.51302,-1.3151 5.57292,-1.3151 2.9297,0 4.4922,1.27604 1.5625,1.27604 1.5625,3.88021 v 9.70053 z m -1.17188,-6.7448 -1.53646,0.0521 q -1.73177,0.0521 -2.57813,0.625 -0.84635,0.57292 -0.84635,1.74479 0,1.67969 1.92708,1.67969 1.38021,0 2.20053,-0.79427 0.83333,-0.79427 0.83333,-2.10938 z m 18.34638,6.7448 -0.53386,-1.86198 h -0.20833 q -0.63802,1.01563 -1.8099,1.57553 -1.17188,0.54687 -2.66927,0.54687 -2.56511,0 -3.8672,-1.36719 -1.30208,-1.38021 -1.30208,-3.95834 v -9.4922 h 3.97136 v 8.50262 q 0,1.57552 0.55989,2.36979 0.5599,0.78126 1.78386,0.78126 1.66667,0 2.40886,-1.10678 0.74219,-1.11979 0.74219,-3.69792 v -6.84897 h 3.97136 v 14.55731 z m 11.77085,-16.90106 q -1.15885,-0.76823 -1.97917,-1.21094 l 1.31511,-2.29167 q 1.92708,0.8724 3.35938,1.84896 l 2.92969,-1.82291 1.30208,2.00521 -2.21354,1.35416 q 2.03125,1.86199 2.99479,4.19272 0.96355,2.33073 0.96355,5.36459 0,3.64584 -1.88803,5.69011 -1.88802,2.03125 -5.20834,2.03125 -3.1901,0 -5.10417,-1.78385 -1.91406,-1.78386 -1.91406,-4.84376 0,-3.03386 1.69271,-4.80469 1.69271,-1.78386 4.57031,-1.78386 2.66928,0 3.58074,1.27604 l 0.10416,-0.0521 q -0.83333,-2.01823 -2.5,-3.60678 l -2.99479,1.84896 -1.30209,-2.03125 z m 4.60938,9.97397 q 0,-1.40625 -0.79427,-2.2526 -0.79427,-0.84636 -2.1875,-0.84636 -1.57553,0 -2.30469,0.89844 -0.71615,0.88542 -0.71615,2.78646 0,1.82292 0.78125,2.7474 0.78125,0.92448 2.23959,0.92448 1.60156,0 2.29167,-1.06771 0.6901,-1.06771 0.6901,-3.19011 z m 10.54688,6.92709 -5.54688,-14.55731 h 4.15365 l 2.81251,8.29429 q 0.42969,1.35416 0.55989,2.98177 h 0.10417 q 0.0781,-1.47136 0.58594,-2.98177 l 2.79948,-8.29429 h 4.15365 l -5.54688,14.55731 z m 17.7344,-12.00522 q -1.26302,0 -1.97917,0.80729 -0.71615,0.79428 -0.82031,2.26563 h 5.57292 q -0.026,-1.47135 -0.76823,-2.26563 -0.74219,-0.80729 -2.00521,-0.80729 z m 0.5599,12.26564 q -3.51563,0 -5.4948,-1.9401 -1.97917,-1.94011 -1.97917,-5.4948 0,-3.65886 1.82292,-5.65105 1.83594,-2.00521 5.06511,-2.00521 3.08594,0 4.80469,1.75781 1.71875,1.75782 1.71875,4.85678 v 1.92708 h -9.38803 q 0.0651,1.69271 1.00261,2.64324 0.9375,0.95052 2.63021,0.95052 1.31511,0 2.48698,-0.27344 1.17188,-0.27344 2.44792,-0.8724 v 3.07292 q -1.04167,0.52084 -2.22656,0.76823 -1.1849,0.26042 -2.89063,0.26042 z m 13.13803,-0.26042 h -3.97136 V 203.8387 h 3.97136 z m 8.77606,0.26042 q -2.56511,0 -4.03647,-1.99219 -1.45833,-1.99219 -1.45833,-5.52084 0,-3.58073 1.48437,-5.57292 1.4974,-2.00521 4.11459,-2.00521 2.7474,0 4.19272,2.13542 h 0.1302 q -0.29948,-1.62761 -0.29948,-2.90365 v -4.66147 h 3.98438 v 20.26044 h -3.04687 l -0.76823,-1.88802 h -0.16928 q -1.35416,2.14844 -4.1276,2.14844 z m 1.39323,-3.16406 q 1.52344,0 2.22656,-0.88542 0.71615,-0.88542 0.78125,-3.00782 v -0.42969 q 0,-2.34375 -0.72917,-3.35938 -0.71614,-1.01562 -2.34375,-1.01562 -1.32812,0 -2.07031,1.13281 -0.72917,1.11979 -0.72917,3.26823 0,2.14845 0.74219,3.22918 0.74219,1.06771 2.1224,1.06771 z m 21.18493,2.90364 -0.53386,-1.86198 H 404.148 q -0.63802,1.01563 -1.8099,1.57553 -1.17188,0.54687 -2.66927,0.54687 -2.56511,0 -3.8672,-1.36719 -1.30208,-1.38021 -1.30208,-3.95834 v -9.4922 h 3.97136 v 8.50262 q 0,1.57552 0.5599,2.36979 0.55989,0.78126 1.78385,0.78126 1.66667,0 2.40886,-1.10678 0.74219,-1.11979 0.74219,-3.69792 v -6.84897 h 3.97136 v 14.55731 z m 20.24742,0 h -3.97136 v -8.50261 q 0,-1.57552 -0.53386,-2.35677 -0.52083,-0.79428 -1.65364,-0.79428 -1.52344,0 -2.21355,1.1198 -0.6901,1.11979 -0.6901,3.6849 v 6.84896 h -3.97136 v -14.55731 h 3.03385 l 0.53386,1.86199 h 0.22135 q 0.58594,-1.00261 1.69271,-1.56251 1.10678,-0.57291 2.53907,-0.57291 3.26823,0 4.42709,2.13542 h 0.35156 q 0.58594,-1.01563 1.71875,-1.57553 1.14584,-0.55989 2.57813,-0.55989 2.47396,0 3.73699,1.27604 1.27604,1.26302 1.27604,4.06251 v 9.49219 h -3.98438 v -8.50261 q 0,-1.57552 -0.53385,-2.35677 -0.52084,-0.79428 -1.65365,-0.79428 -1.45834,0 -2.18751,1.04167 -0.71614,1.04167 -0.71614,3.3073 z m 33.51566,0 h -3.97136 v -8.50261 q 0,-1.57552 -0.5599,-2.35677 -0.55989,-0.79428 -1.78385,-0.79428 -1.66667,0 -2.40886,1.1198 -0.74219,1.10677 -0.74219,3.6849 v 6.84896 h -3.97136 v -14.55731 h 3.03386 l 0.53385,1.86199 h 0.22136 q 0.66406,-1.05469 1.82292,-1.58855 1.17187,-0.54687 2.65625,-0.54687 2.53907,0 3.85417,1.38021 1.31511,1.36719 1.31511,3.95834 z m 10.1172,-12.00522 q -1.26303,0 -1.97917,0.80729 -0.71615,0.79428 -0.82032,2.26563 h 5.57293 q -0.026,-1.47135 -0.76823,-2.26563 -0.74219,-0.80729 -2.00521,-0.80729 z m 0.55989,12.26564 q -3.51563,0 -5.49479,-1.9401 -1.97917,-1.94011 -1.97917,-5.4948 0,-3.65886 1.82291,-5.65105 1.83594,-2.00521 5.06512,-2.00521 3.08594,0 4.80469,1.75781 1.71875,1.75782 1.71875,4.85678 v 1.92708 h -9.38803 q 0.0651,1.69271 1.0026,2.64324 0.93751,0.95052 2.63022,0.95052 1.3151,0 2.48698,-0.27344 1.17187,-0.27344 2.44792,-0.8724 v 3.07292 q -1.04167,0.52084 -2.22657,0.76823 -1.18489,0.26042 -2.89063,0.26042 z m 15.29951,-3.16406 q 1.04167,0 2.5,-0.45573 v 2.95573 q -1.48438,0.66406 -3.64584,0.66406 -2.38281,0 -3.47656,-1.19792 -1.08073,-1.21094 -1.08073,-3.61979 v -7.01824 h -1.90105 v -1.67969 l 2.1875,-1.32813 1.14584,-3.07292 h 2.53906 v 3.09896 h 4.07553 v 2.98178 h -4.07553 v 7.01824 q 0,0.84635 0.46876,1.25 0.48177,0.40365 1.26302,0.40365 z m 8.60678,-4.40105 q 0,2.16146 0.70312,3.26823 0.71615,1.10677 2.31771,1.10677 1.58855,0 2.27865,-1.09375 0.70313,-1.10677 0.70313,-3.28125 0,-2.16146 -0.70313,-3.24219 -0.70313,-1.08073 -2.30469,-1.08073 -1.58854,0 -2.29167,1.08073 -0.70312,1.06771 -0.70312,3.24219 z m 10.06511,0 q 0,3.55469 -1.875,5.5599 -1.875,2.00521 -5.22136,2.00521 -2.09636,0 -3.69792,-0.91146 -1.60157,-0.92448 -2.46094,-2.64323 -0.85938,-1.71875 -0.85938,-4.01042 0,-3.56771 1.86198,-5.54688 1.86198,-1.97917 5.23438,-1.97917 2.09636,0 3.69793,0.91146 1.60156,0.91146 2.46094,2.61719 0.85937,1.70573 0.85937,3.9974 z m -11.52345,-10.9896 q 0,-0.84635 0.48177,-1.30208 0.49479,-0.45573 1.32813,-0.45573 0.85937,0 1.34115,0.48177 0.49479,0.48177 0.49479,1.27604 0,0.78125 -0.49479,1.26302 -0.4948,0.46875 -1.34115,0.46875 -0.83334,0 -1.32813,-0.45573 -0.48177,-0.45573 -0.48177,-1.27604 z m 5.2474,0 q 0,-0.91146 0.52084,-1.32813 0.53385,-0.42968 1.3151,-0.42968 0.84636,0 1.34115,0.46875 0.50781,0.46875 0.50781,1.28906 0,0.79427 -0.50781,1.26302 -0.50781,0.46875 -1.34115,0.46875 -0.78125,0 -1.3151,-0.41666 -0.52084,-0.42969 -0.52084,-1.31511 z m 17.68233,3.46355 q 0.80729,0 1.34115,0.11718 l -0.29948,3.72397 q -0.48177,-0.13021 -1.17188,-0.13021 -1.90104,0 -2.96875,0.97656 -1.05469,0.97657 -1.05469,2.73438 v 7.40886 h -3.97136 v -14.55731 h 3.00782 l 0.58594,2.44792 h 0.19531 q 0.67708,-1.22396 1.82292,-1.96614 1.15885,-0.75521 2.51302,-0.75521 z m 1.90103,0.27343 h 4.34896 l 2.7474,8.19012 q 0.35157,1.06771 0.48177,2.52604 h 0.0781 q 0.14323,-1.34114 0.5599,-2.52604 l 2.69531,-8.19012 h 4.25782 l -6.15886,16.4193 q -0.84636,2.27865 -2.42188,3.41146 -1.5625,1.13281 -3.65886,1.13281 -1.02865,0 -2.01823,-0.22135 V 227.133 q 0.71615,0.16927 1.5625,0.16927 1.05469,0 1.83594,-0.65104 0.79427,-0.63802 1.23698,-1.94011 l 0.23438,-0.71614 z m 23.28127,11.70575 q 1.60156,0 2.29167,-0.91146 0.6901,-0.92448 0.6901,-2.98178 v -0.48177 q 0,-2.33073 -0.72916,-3.34636 -0.71615,-1.02864 -2.31771,-1.02864 -2.79949,0 -2.79949,4.40104 0,2.18751 0.69011,3.26824 0.70312,1.08073 2.17448,1.08073 z m 6.69272,2.87761 q 0,3.13802 -1.83594,4.75261 -1.82292,1.6276 -5.44272,1.6276 -3.19011,0 -5.44271,-0.85937 v -3.17709 q 2.64323,1.11979 5.67709,1.11979 3.0599,0 3.0599,-3.30729 v -0.28646 l 0.11718,-1.78386 h -0.11718 q -1.39323,2.14844 -4.12761,2.14844 -2.61719,0 -4.06251,-2.01823 -1.43229,-2.01823 -1.43229,-5.4948 0,-3.58073 1.48438,-5.57292 1.49739,-2.00521 4.11458,-2.00521 2.6823,0 4.21876,2.13542 h 0.10417 l 0.32552,-1.86199 h 3.35938 z m 10.18231,-2.87761 q 1.60157,0 2.29167,-0.91146 0.69011,-0.92448 0.69011,-2.98178 v -0.48177 q 0,-2.33073 -0.72917,-3.34636 -0.71615,-1.02864 -2.31771,-1.02864 -2.79949,0 -2.79949,4.40104 0,2.18751 0.69011,3.26824 0.70312,1.08073 2.17448,1.08073 z m 6.69272,2.87761 q 0,3.13802 -1.83594,4.75261 -1.82292,1.6276 -5.44272,1.6276 -3.19011,0 -5.44271,-0.85937 v -3.17709 q 2.64323,1.11979 5.67709,1.11979 3.0599,0 3.0599,-3.30729 v -0.28646 l 0.11719,-1.78386 h -0.11719 q -1.39323,2.14844 -4.12761,2.14844 -2.61719,0 -4.06251,-2.01823 -1.43229,-2.01823 -1.43229,-5.4948 0,-3.58073 1.48438,-5.57292 1.49739,-2.00521 4.11458,-2.00521 2.6823,0 4.21876,2.13542 h 0.10417 l 0.32552,-1.86199 h 3.35938 z m 3.98439,-18.34638 q 0,-1.94011 2.16146,-1.94011 2.16146,0 2.16146,1.94011 0,0.92448 -0.54688,1.44531 -0.53385,0.50782 -1.61458,0.50782 -2.16146,0 -2.16146,-1.95313 z m 4.14063,18.32033 h -3.97136 v -14.55731 h 3.97136 z"
     id="text14"
     transform="translate(33.345794,-2.4738868)"
     aria-label="Við auðveldum netöryggi" />
</svg>
